<svg xmlns="http://www.w3.org/2000/svg" xmlns:xlink="http://www.w3.org/1999/xlink" width="169.994" height="33.416" viewBox="0 0 169.994 33.416">
  <defs>
    <clipPath id="clip-path">
      <path id="Path_195" data-name="Path 195" d="M0,0H169.994V33.416H0Z" transform="translate(-0.73)" fill="none"/>
    </clipPath>
  </defs>
  <g id="Layer_1" data-name="Layer 1" transform="translate(0.73)" clip-path="url(#clip-path)">
    <path id="Path_194" data-name="Path 194" d="M4.666,28.481V15.973h4.6a8.587,8.587,0,0,1,1.926.2,4.234,4.234,0,0,1,1.557.669A3.3,3.3,0,0,1,13.8,18.093a4.738,4.738,0,0,1-.013,3.784,3.634,3.634,0,0,1-1.076,1.313,4.5,4.5,0,0,1-1.564.763,6.917,6.917,0,0,1-1.876.25H7.492v4.278ZM7.492,21.99H9.068q2.3,0,2.3-2a1.614,1.614,0,0,0-.563-1.413,2.952,2.952,0,0,0-1.714-.407H7.492Zm8.255,6.492V15.973h3.227L21.064,21.6l.75,2.189h.075l.744-2.189,2.033-5.629h3.171V28.481H25.017V23.891q0-.457.038-1.013c.031-.375.063-.75.106-1.126s.088-.75.125-1.119.081-.7.125-1.007h-.081l-1.051,2.889-1.92,4.859H21.22l-1.933-4.859-.982-2.889h-.094c.044.306.081.625.125,1.007s.088.738.119,1.119.069.75.094,1.119.044.707.044,1.019v4.591Zm13.9-6.179a7.43,7.43,0,0,1,.482-2.777,6.367,6.367,0,0,1,1.307-2.07,5.454,5.454,0,0,1,1.876-1.288,6.048,6.048,0,0,1,2.3-.444,4.534,4.534,0,0,1,2.126.494,6.167,6.167,0,0,1,1.576,1.145l-1.545,1.757a4.509,4.509,0,0,0-.969-.694,2.5,2.5,0,0,0-1.151-.25,2.771,2.771,0,0,0-1.251.275,3.021,3.021,0,0,0-.988.8,3.84,3.84,0,0,0-.663,1.251A5.447,5.447,0,0,0,32.5,22.19a4.772,4.772,0,0,0,.832,3,2.658,2.658,0,0,0,2.251,1.076,2.789,2.789,0,0,0,1.345-.306,3.753,3.753,0,0,0,1.038-.8l1.557,1.732a5.31,5.31,0,0,1-1.795,1.382,5.216,5.216,0,0,1-2.183.463,6.292,6.292,0,0,1-2.283-.413,5.316,5.316,0,0,1-1.876-1.251,5.766,5.766,0,0,1-1.251-2.008,7.542,7.542,0,0,1-.488-2.764ZM0,9.144H43.4L22.352,0Zm0,1.376H43.4v1.958H0ZM0,31.458H43.4v1.958H0ZM48.326,23.24v4.278H46.293V15.967h4.422a4.5,4.5,0,0,1,3.077,1.007,3.409,3.409,0,0,1,1.138,2.671A3.29,3.29,0,0,1,53.811,22.3a4.666,4.666,0,0,1-3.127.944Zm0-1.62H50.74a2.364,2.364,0,0,0,1.632-.507,1.876,1.876,0,0,0,.563-1.457,2,2,0,0,0-.594-1.52,2.2,2.2,0,0,0-1.57-.575H48.326ZM61.7,26.686a2.989,2.989,0,0,1-2.414,1,2.683,2.683,0,0,1-2.12-.794,3.49,3.49,0,0,1-.713-2.389V18.938h1.926v5.541c0,1.088.45,1.632,1.357,1.632A1.907,1.907,0,0,0,61.616,25.1V18.938h1.926v8.581H61.747Zm11.37-3.365a5.172,5.172,0,0,1-.894,3.183,2.908,2.908,0,0,1-2.458,1.182A2.808,2.808,0,0,1,67.37,26.6l-.094.919H65.531V15.329h1.926v4.434a2.8,2.8,0,0,1,2.245-1,2.946,2.946,0,0,1,2.47,1.17,5.222,5.222,0,0,1,.9,3.265Zm-1.933-.181a3.665,3.665,0,0,0-.488-2.1,1.639,1.639,0,0,0-1.432-.7,1.789,1.789,0,0,0-1.764,1.094v3.577a1.807,1.807,0,0,0,1.782,1.119,1.626,1.626,0,0,0,1.395-.669,3.534,3.534,0,0,0,.507-2.045Zm6.335-7.173,3.371,8.862,3.321-8.862h2.6V27.518h-2v-3.8l.194-5.1-3.44,8.9H80.084l-3.409-8.9.2,5.091v3.809h-2V15.967ZM92.73,27.687a3.99,3.99,0,0,1-2.971-1.157,4.172,4.172,0,0,1-1.138-3.077v-.238a5.116,5.116,0,0,1,.494-2.3,3.753,3.753,0,0,1,1.395-1.576,3.627,3.627,0,0,1,2-.569,3.371,3.371,0,0,1,2.708,1.119,4.753,4.753,0,0,1,.957,3.171v.776H90.547a2.589,2.589,0,0,0,.707,1.689,2.139,2.139,0,0,0,1.57.625,2.614,2.614,0,0,0,2.158-1.076l1.044.994a3.471,3.471,0,0,1-1.382,1.195,4.3,4.3,0,0,1-1.914.419ZM92.5,20.326a1.645,1.645,0,0,0-1.282.557,2.864,2.864,0,0,0-.625,1.545h3.677V22.29a2.37,2.37,0,0,0-.519-1.47,1.607,1.607,0,0,0-1.276-.494Zm4.791,2.814a5.1,5.1,0,0,1,.919-3.127,2.958,2.958,0,0,1,2.5-1.207,2.8,2.8,0,0,1,2.208.957V15.385h1.926V27.518H103.1l-.094-.888a2.846,2.846,0,0,1-2.314,1.051,2.939,2.939,0,0,1-2.439-1.213,5.329,5.329,0,0,1-.963-3.327Zm1.926.169a3.559,3.559,0,0,0,.507,2.045,1.639,1.639,0,0,0,1.432.732,1.832,1.832,0,0,0,1.732-1.051V21.389a1.8,1.8,0,0,0-1.714-1.032,1.651,1.651,0,0,0-1.445.744,3.928,3.928,0,0,0-.513,2.233Zm20.67.457a4.2,4.2,0,0,1-1.363,2.883,4.647,4.647,0,0,1-3.171,1.038,4.5,4.5,0,0,1-2.433-.657,4.309,4.309,0,0,1-1.626-1.876,6.742,6.742,0,0,1-.625-2.8V21.264a6.742,6.742,0,0,1,.582-2.883,4.322,4.322,0,0,1,1.664-1.92,4.622,4.622,0,0,1,2.5-.675,4.49,4.49,0,0,1,3.083,1.032,4.34,4.34,0,0,1,1.357,2.933h-2a2.858,2.858,0,0,0-.725-1.795,2.4,2.4,0,0,0-1.714-.55,2.352,2.352,0,0,0-2.014.957,4.8,4.8,0,0,0-.657,2.833v1.026a5.041,5.041,0,0,0,.625,2.858,2.22,2.22,0,0,0,1.964.988,2.577,2.577,0,0,0,1.776-.532,2.764,2.764,0,0,0,.776-1.77Zm5.366,3.921a4,4,0,0,1-2.977-1.157,4.2,4.2,0,0,1-1.138-3.077v-.238a5.116,5.116,0,0,1,.5-2.3,3.79,3.79,0,0,1,1.388-1.576,3.659,3.659,0,0,1,2-.569,3.383,3.383,0,0,1,2.727,1.119,4.753,4.753,0,0,1,.957,3.171v.776h-5.629a2.589,2.589,0,0,0,.713,1.689,2.133,2.133,0,0,0,1.57.625,2.62,2.62,0,0,0,2.158-1.076l1.038.994a3.452,3.452,0,0,1-1.376,1.195,4.34,4.34,0,0,1-1.933.419Zm-.231-7.361a1.626,1.626,0,0,0-1.251.557,2.914,2.914,0,0,0-.625,1.545h3.677V22.29a2.37,2.37,0,0,0-.513-1.47,1.62,1.62,0,0,0-1.263-.494Zm6.986-1.388.056.988a3.127,3.127,0,0,1,2.5-1.151q2.683,0,2.733,3.077v5.666h-1.933V21.952a1.751,1.751,0,0,0-.35-1.207,1.488,1.488,0,0,0-1.157-.394,1.876,1.876,0,0,0-1.726,1.063v6.1h-1.939V18.938Zm9.675-2.089v2.089h1.514v1.426h-1.514v4.8a1.057,1.057,0,0,0,.194.713.913.913,0,0,0,.694.219,3.208,3.208,0,0,0,.675-.081v1.507a4.86,4.86,0,0,1-1.251.181q-2.226,0-2.226-2.452V20.363h-1.413V18.938h1.413V16.849Zm7.486,3.853a4.672,4.672,0,0,0-.775-.063,1.77,1.77,0,0,0-1.782,1.019v5.86h-1.97V18.938h1.876l.044.957a2.183,2.183,0,0,1,1.939-1.119,1.782,1.782,0,0,1,.682.113Zm6.1,6.817a3.083,3.083,0,0,1-.219-.8,2.99,2.99,0,0,1-2.258.963,3.04,3.04,0,0,1-2.108-.738,2.352,2.352,0,0,1-.819-1.826,2.427,2.427,0,0,1,1.026-2.1,4.916,4.916,0,0,1,2.921-.738H155v-.563a1.351,1.351,0,0,0-1.507-1.47,1.7,1.7,0,0,0-1.082.331,1.019,1.019,0,0,0-.419.838h-1.933a2.133,2.133,0,0,1,.469-1.32,3.127,3.127,0,0,1,1.251-.969,4.5,4.5,0,0,1,1.795-.35,3.609,3.609,0,0,1,2.408.763,2.677,2.677,0,0,1,.919,2.133v3.871a4.465,4.465,0,0,0,.325,1.876v.1Zm-2.12-1.388a2.264,2.264,0,0,0,1.082-.275,1.926,1.926,0,0,0,.757-.744V23.5h-1.044a2.814,2.814,0,0,0-1.607.369,1.207,1.207,0,0,0-.544,1.057,1.151,1.151,0,0,0,.369.888,1.438,1.438,0,0,0,.994.325ZM161,27.518h-1.933V15.329H161Zm1.514-8.756a3.6,3.6,0,0,1,.432-1.732,3.239,3.239,0,0,1,5.7,0,3.709,3.709,0,0,1,0,3.471,3.271,3.271,0,0,1-1.195,1.251,3.089,3.089,0,0,1-1.657.469,3.127,3.127,0,0,1-1.651-.463,3.3,3.3,0,0,1-1.2-1.251,3.6,3.6,0,0,1-.432-1.745Zm6,0a3.008,3.008,0,0,0-.35-1.426,2.664,2.664,0,0,0-.982-1.076,2.564,2.564,0,0,0-1.388-.394,2.658,2.658,0,0,0-1.37.375,2.708,2.708,0,0,0-.988,1.051,2.958,2.958,0,0,0-.363,1.451,3.021,3.021,0,0,0,.356,1.451,2.727,2.727,0,0,0,.994,1.069,2.608,2.608,0,0,0,2.727,0,2.677,2.677,0,0,0,.988-1.057,3.008,3.008,0,0,0,.375-1.445Zm-3.383.35v1.526h-.7V16.717h1.3a1.739,1.739,0,0,1,1.107.313,1.063,1.063,0,0,1,.394.888.9.9,0,0,1-.55.832.832.832,0,0,1,.419.394,1.457,1.457,0,0,1,.119.625,5.213,5.213,0,0,0,0,.538.738.738,0,0,0,.063.263v.069h-.719a3.81,3.81,0,0,1-.063-.9.719.719,0,0,0-.15-.507.7.7,0,0,0-.507-.156Zm0-.625h.657a.907.907,0,0,0,.538-.144.444.444,0,0,0,.213-.394.55.55,0,0,0-.163-.457.976.976,0,0,0-.594-.144h-.625Z" transform="translate(-0.273)"/>
  </g>
</svg>
